<?xml version="1.0" encoding="utf-8"?>
<!-- Generator: Adobe Illustrator 26.0.3, SVG Export Plug-In . SVG Version: 6.00 Build 0)  -->
<svg version="1.0" id="katman_1" xmlns="http://www.w3.org/2000/svg" xmlns:xlink="http://www.w3.org/1999/xlink" x="0px" y="0px"
	 viewBox="0 0 600 450" style="enable-background:new 0 0 600 450;" xml:space="preserve">
<style type="text/css">
	.st0{fill:#dc143c;}
</style>
<g>
	<path class="st0" d="M300.1,67.4c-87.3,0-158,70.7-158,158s70.7,158,158,158s158-70.7,158-158S387.4,67.4,300.1,67.4z M300.1,367.6
		c-78.6,0-142.2-63.6-142.2-142.2c0-17.4,3.2-34.8,9.1-50.2c0.4,2.8,1.6,4.7,5.1,5.5c0.4,0,0.8,1.2,1.2,1.6c0.4,0.4,0.4,1.2,0,1.6
		c-1.2,6.3,1.2,11.5,4.7,16.6c1.2,1.6,4.3,3.2,5.1,2c1.6-1.6,1.2-3.2-0.4-4.7c-3.2-4.3-5.5-9.1-5.1-15c1.6-0.4,3.2-0.4,3.2,1.6
		c0,6.3,3.6,10.3,7.1,15c1.6,2,2.8,3.6,0.8,6.3c-0.4,0.4-0.4,0.8-0.4,1.2c0,1.6,5.1,7.5,6.3,8.3c3.2,0.8,6.3,1.6,9.1,2.4
		c0.4,0,1.2-0.4,1.6-0.4c1.2-0.4,2.8-0.4,3.9-0.4c0.4,0,0.4,1.6,1.2,2.4c0.8,0.8,1.2,1.6,1.6,1.6c6.3,0.4,10.7,3.6,13.8,8.7
		c2.4,3.6,5.5,3.2,8.7,3.6c5.1,0.4,5.1,0.4,5.9,5.5c0.8,3.6-0.8,5.1-3.6,6.3c-3.2,1.6-4.3,3.9-4.3,7.5c0,1.2,0.4,2.4-0.4,3.2
		c-1.6,3.9,0,7.1,2.8,9.5c2,2,3.6,4.3,5.1,6.3c0.4,0.4,1.2,1.2,1.2,1.6c0.8,5.9,5.9,7.1,9.9,9.1c3.9,2.4,5.9,5.1,5.5,10.3
		c-0.4,5.5-0.4,11.1,0,16.2c0,0.8,0.4,2.4,0.8,2.4c2.8,0.8,2,2.4,1.6,4.3c0,0.8-0.4,1.2-0.4,2c-1.2,3.9-1.2,7.5,2.4,10.7
		c1.6,1.6,1.6,2.8,1.6,5.1c-0.4,2.4-0.4,4.3-0.4,6.7c0,0.8-0.4,1.6,0.4,2c3.2,4.3,5.5,9.1,8.7,13.4c0.4,0.8,1.6,1.2,2.4,2
		c2.8,3.6,6.7,3.6,11.1,3.6c0.8,0,1.6-0.8,2-1.2c0.4-0.8-0.4-1.6-0.8-2.4l-0.4-0.4c-4.3-2.4-5.5-5.5-3.6-10.3c1.2-2,0.4-3.2-2.4-3.2
		c-1.2,0-2.4-1.2-3.6-2c1.6-2.4,3.2-4.3,3.9-5.9c-0.4-0.8-0.8-0.8-0.8-1.2c-1.2-0.8-2-1.6-3.2-2.4c1.2-0.8,2.4-1.2,3.6-1.6
		c3.6-1.6,7.1-2.8,10.3-4.3c0.4-0.4,0.8-0.8,1.2-1.2c3.2-4.7,6.7-9.5,9.9-14.2c0.8-1.2,1.2-2.8,1.2-3.9c0-1.6-0.8-3.6-1.2-5.1
		c-0.8-3.6,2-6.3,5.5-6.3c2.4,0,5.1,0.4,7.5-1.2c2.4-2,4.3-4.3,3.9-7.5c0-1.6,0.4-3.2,0.4-4.3c0-5.9,2-11.1,5.9-15
		c1.2-1.2,1.6-3.6,1.6-5.1c0-0.4-0.8-1.6-1.2-1.6c-3.2-0.4-5.1-2.4-6.3-5.1c-1.2-2-2.4-2.4-4.3-2.4c-6.3,0.4-12.2-0.4-17.4-3.2
		c-1.6-0.8-2.4-1.6-2.4-3.2c0-1.6,0-3.6-0.8-5.1c-1.2-3.6-3.2-6.3-7.9-5.5c-3.2,0.8-5.1-1.2-6.7-3.6c-1.6-3.2-3.2-5.9-7.1-6.3
		c-2.4,3.2-9.1,3.6-11.1,0c-1.6-2.8-4.3-2-6.7-3.2c-3.2-1.2-5.1,0-6.3,2.4c-2.8,4.7-6.3,6.3-11.5,4.3c-0.8-0.4-1.6-0.4-2.4-0.4
		c-1.6,0-2.4-0.8-2.4-2.4c0-3.2-0.4-5.5-0.4-8.7c0-1.6-0.8-2.4-2.4-2.8c-2-0.4-3.6-0.8-5.5-1.2c0.4-3.6,4.3-5.9,1.6-9.9
		c-3.2,2-6.3,3.9-9.1,6.3c-1.6,1.2-7.5,1.2-8.3,0c-1.6-2.4-3.2-4.3-2-7.5c1.6-3.2,2.4-7.5,4.7-9.5c2.8-2.4,6.7-4.3,10.3-5.1
		c4.3-0.8,9.1-0.4,13.4-0.4c0.8,0,2.4,1.2,2.4,1.6c-0.8,4.3,3.2,4.7,5.9,6.3c0-1.6,0.4-2.8,0-3.6c-1.6-5.1,1.6-7.5,5.1-10.3
		c1.2-1.2,2.8-1.6,3.9-2.8c2.4-1.6,4.3-2.8,4.3-5.9c0-0.4,0.4-1.2,0.8-1.6c3.9-3.6,7.5-7.5,11.8-10.3c3.9-2.4,6.3-6.3,9.9-8.7
		c1.2-0.8,2.8-1.2,3.6-0.8c2.4,1.2,2.4-0.4,3.6-1.6c-1.2-0.4-2.4-0.4-3.2-1.2c-0.8-0.4-1.6-1.2-1.6-1.6c0-0.4,0.8-2.4,1.2-2.4
		c1.6,0,3.6,0.4,5.1,1.2c1.6,1.6,6.3,1.6,7.5-0.4c1.2-1.2,2-1.2,2.8-0.4c0.4,0.4,0,2-0.4,2.4c-2,2.4-2,3.6,1.2,4.3
		c1.6,0.4,3.6,1.2,5.5,1.6c0.8,0.4,1.6-0.4,2.4-0.4c-0.4-1.2-0.4-2.4-1.2-3.2c-0.8-0.8-2.4-1.2-3.2-1.6c-0.8-0.4-1.6-1.2-2.4-2
		c0.8-0.4,1.6-1.2,2.4-1.6c2.8-0.4,3.6-2,2.8-4.3c-0.4-1.2-0.8-2.4-1.6-2.8c-3.6-1.6-4.3-4.3-4.3-7.5c0-1.2,0-1.6-0.4-3.2
		c-2.4,1.2-3.9,2-5.5,2.8c-1.2,0.4-2.4,0.4-3.6,0.8c-0.4-1.2-0.4-2.4-0.4-3.6c0.4-2.4-0.4-3.6-2.8-3.6c-1.6-0.4-3.2-0.8-5.1-1.2
		c-4.3-1.2-7.1,1.2-7.1,5.5c0,0.4,0,0.4,0,0.8c0,5.9,0.4,6.3-5.5,7.5c-2.4,0.8-2.8,2.8-3.6,4.3c-0.8,1.6-1.6,3.2-4.7,2.8
		c0-1.6,0-3.2,0-4.7c0.4-2.4-0.4-3.6-3.2-3.6c-1.2,0-2.4-0.4-3.2-0.4c-3.2-0.8-5.5-3.6-5.5-7.1c0-0.4,0.4-1.2,0.8-1.2
		c5.5-3.2,11.1-7.5,17.8-8.7h0.4c0.4,1.2,0.4,2.4,1.2,4.3c2.4-1.2,4.3-2.4,6.7-3.6c-0.4-1.2-0.8-2-1.2-3.2c1.2-0.4,2.4-0.4,3.2-0.8
		c1.2-0.4,2-0.8,2.4-1.6c3.2-3.9,7.5-3.2,11.5-3.2c1.2,0,2.8,1.6,4.3,3.2c-3.6,2-6.7,3.6-11.1,5.9c5.1,1.2,9.1,2.4,13.4,3.2
		c0.4-0.8,0.8-1.2,1.2-2c0.4-2.4,2-3.2,4.3-2.8c2.8,0.4,4.3-1.2,4.7-3.9c-3.6,0-4.3-2-3.9-5.1c0-0.4-0.8-1.6-1.6-1.6
		c-3.6-1.6-7.5-3.9-11.5-4.7c-5.1-1.2-10.3,0-14.6,3.2c-0.4,0.4-0.4,1.2-0.4,2c0,1.6,0,3.2,0,5.1c-2-0.8-3.9-1.2-5.1-2
		c-0.4-0.4-0.4-2.8,0.4-3.9c0.8-1.2,2-2,3.2-3.6c-3.2,0-6.7-0.4-9.9,0.4c-1.2,0-2,1.6-3.2,3.2c1.6,0.4,2.8,0.8,3.6,1.2
		c0.4,2.4-0.4,3.6-3.2,3.6c-1.6,0-3.2,0.8-4.3,1.6c-2.4,1.2-5.5,0.8-8.3,0.8c-0.4,0-0.8-2.8-1.2-4.7c5.1,0.8,9.1-0.8,11.8-5.1
		c-1.2-1.6-2.4-1.2-3.9,0.4c-3.6,3.2-7.5,2.8-10.3-0.8c-2-2.8-7.9-3.9-10.7-2.4c-2.4,1.6-4.7,3.9-7.1,5.5c0,0.4,0-1.2,0.4,1.2
		c1.2,0,2.4,0,3.6,0c3.6,0,4.3,0,3.2,3.2c2.4,1.6,7.1-2,8.7,3.2c-3.2,0-5.5-0.4-8.3-0.4c-0.4,0-0.4,0-0.4-0.4
		c-1.6-3.6-5.1-3.2-7.5-3.9c-2.4-1.2-5.1-1.2-7.5-2c21.7-14.2,50.6-24.1,81-24.1c38.3,0,73.5,15.4,99.1,39.9
		c-1.6-1.6-3.2-2.8-4.3-3.6c-0.4,0.8-0.8,1.6-2,2.4c-1.6,0.8-3.6,1.6-5.1,2.4c-2.4,1.2-3.6,3.6-3.2,5.5c0.4,0.4,0.8,1.2,1.2,1.2
		c2.4,0,3.2,1.2,3.6,3.2c0.4,2.4,1.6,2.4,3.6,1.6c1.2-0.4,2-0.8,3.2-1.2c0.4,2.4,0.4,4.3,1.2,7.1c-1.6-0.4-3.2-0.4-4.7-0.4
		c-4.3-0.4-7.9,0-10.3,4.3c-1.2,2.4-3.2,4.3-6.3,4.3c-3.2-0.4-4.3,1.6-4.3,4.3c0,0.8-0.4,1.6-0.4,2.4c1.2,0.8,2.4,1.2,2.8,2
		c0.8,1.6-0.8,3.6-2.8,3.2c-3.2-0.4-6.3-1.2-9.5-0.4c-2.8,0.8-4.3,2.4-3.9,5.5c0,1.2,0.4,2.4,0.4,3.9c0,3.6,2,4.3,5.5,5.1
		c1.6,0.4,2.8,0,4.3,0c3.2,0,6.3,0,7.5-4.3c1.2-3.2,3.6-5.1,5.9-7.9c0.4-0.4,1.2-1.2,1.6-1.2c3.6,1.6,5.5-0.8,8.3-3.2
		c2.4,5.5,8.3,6.7,11.8,10.7c-0.8,1.6-0.8,1.6-5.1,2c0.4,2.4,2.4,3.2,4.3,3.2c2-0.4,3.9-1.2,3.6-3.9c-0.4-1.2,0.4-2,0.8-3.2
		c-3.2-3.2-9.5-3.6-9.5-10.3c2.8-0.4,5.5-1.2,7.5,1.6c0.8,1.2,1.6,1.6,2.8,2.4c2.4,1.6,3.2,3.2,3.2,5.9c-0.4,3.6,3.6,5.1,5.5,8.3
		c0.8-2.4,1.6-4.3,1.6-6.3c0.4-2.4,2.4-3.2,4.3-3.9c0.4,1.6,0.4,2.4,0.8,3.6c0.8,5.1,2.8,7.1,7.5,6.7c0.8,0,1.6,0,2.4,0.4
		c1.6,3.9,2.8,8.3,3.9,12.2c-0.4,0-0.4,0-0.8,0c-2.8,0-5.9,0.4-8.7-0.4c-2-0.4-4.3-1.6-5.5-3.2c-3.2-2.8-6.3-1.6-9.1-1.2
		c-0.4,0-1.2,1.6-1.2,2.4c0,2.4-1.2,2.4-2.8,1.6c-4.3-1.6-8.3-3.2-12.2-3.9c-2-0.4-2.8-1.6-2.8-3.6c0.4-1.6,0-3.2,0-5.1
		c-1.6,0-2.8-0.4-3.9,0c-5.5,0.8-11.5,0-17,3.2c-2.4,1.2-5.5-0.4-8.3,0.4c-3.2,0.8-6.3,2.4-9.1,4.3c-0.4-0.8,0,1.2,0,2.8
		c0.4,2.8-0.4,4.3-3.2,5.9c-3.6,2.4-7.1,5.1-10.3,7.5c-1.2,1.2-3.2,1.2-2.4,3.6c0.4,2,1.2,3.9,3.6,3.6c0,2,0.4,3.9-2,5.1
		c-0.4,0.4-0.8,1.2-0.8,1.6c-0.4,0.4,0,1.2,0,1.6c-1.2,6.3,0.4,11.8,5.5,16.2c2,1.6,3.6,3.9,5.5,5.9c2.8,3.2,5.1,3.6,9.1,2.4
		c2.8-0.8,5.5-0.4,8.3-0.4c1.2,0,2.4-0.4,3.6-0.8c4.3-2.8,7.1-2.8,11.1,0.4c0.8,0.4,1.6,1.2,2.8,1.2c1.6,0.4,3.6,0.4,5.1,0.4
		c1.6,0,2.4,1.2,2,2.4c-2,7.1-0.4,13.4,4.3,19.4c4.3,5.5,5.1,11.1,0.4,17c-2,2.4-1.2,5.9,1.2,8.3c2.4,2,2.8,3.9,2.4,6.7
		c0,0.4,0,1.2,0,1.6c-0.4,4.3,0.4,7.5,3.6,10.7c2,1.6,2.4,3.9,2.4,6.7c-0.4,1.6,0,5.1,0,7.1C381.1,348.6,342.8,367.6,300.1,367.6z"
		/>
	<path class="st0" d="M371.2,138.9c1.2,1.2,1.6,2.4,0,3.2c-3.6,0.8-2.4,3.2-2.4,5.1c7.1,1.2,9.9,0.4,11.8-3.6
		c-5.5-2.4-7.1-7.5-7.9-13c-1.2,0.4-2.4,0.4-3.2,0.8c-1.2,0.8-2.4,1.6-2.4,2.8c-0.4,0.8,1.2,2,1.6,2.8
		C368.8,137.7,370.4,138.1,371.2,138.9z"/>
	<path class="st0" d="M361.7,145.2c2-1.2,3.6-2.4,5.5-3.6c0.4-0.4,0.4-1.2,1.2-2c-0.4-0.4-1.2-1.6-1.6-1.6c-1.6,0-4.3-0.4-5.1,0.8
		c-1.6,1.6-2,3.6-2.8,5.9C359.8,144.8,360.9,145.6,361.7,145.2z"/>
	<path class="st0" d="M288.7,154.7c-1.6,0.8-3.2,2-5.1,3.2c0.8,2.4,2.4,2.8,3.9,1.2c1.6-1.2,2.4-2.8,4.3-4.3
		C290.2,154.7,289.5,154.7,288.7,154.7z"/>
	<path class="st0" d="M277.2,159.8c0.4,0.4,0.8,0.8,1.2,1.2c0.8-0.4,1.6-1.2,2.4-1.6c-0.4-0.4-1.2-1.2-1.2-1.6
		C278.4,157.8,277.6,159,277.2,159.8z"/>
</g>
</svg>
